:SAMPLES-PER-SECOND 30
:FULLY-SPECIFIED
:DEGREES
287
root  62.1927 38.4786 -1.91075 -2.01515 8.19678 2.47717
RightUpLeg  -4.19779 25.236 -8.44129
RightLeg  27.7893 6.04601 3.21215
RightFoot  -21.5176 -0.210093 -0.730906
RightToes  -4.65663e-010 0 -3.6325e-017
Spine  10.2411 -2.69514 2.84386
Spine1  9.17471 -3.78747 4.29285
HEad  26.21 14.0679 0.455158
LeftShoulder1  7.21792 -10.3354 -45.4501
LeftArm  -14.5579 20.9609 -31.0218
LeftForeArm  45.3953 -36.1414 -5.52356
LeftHand  -0.244104 0.0205437 5.32207
RightShoulder  3.5086 6.24073 30.0399
RightArm  -7.30154 -21.551 34.4691
RightForeArm  -1.49716 38.4917 9.0041
RightHand  -2.13928 5.30056 -23.2182
LeftUpLeg  -14.3364 -8.11263 12.4029
LeftLeg  13.2464 -8.6799 -0.483583
LeftFoot  -5.29959 0.641271 -11.5274
LeftToes  -5.82109e-011 -4.83791e-012 -1.00937e-011
288
root  63.834 38.3619 -1.80171 -1.89731 3.33386 2.81696
RightUpLeg  -4.91129 27.868 -12.0938
RightLeg  26.4181 7.87989 4.0186
RightFoot  -21.5166 -0.00226995 1.63338
RightToes  -4.65663e-010 0 -3.6325e-017
Spine  10.9138 -2.54706 2.28374
Spine1  8.94261 -3.58956 3.87637
HEad  26.2875 15.5278 -0.529222
LeftShoulder1  7.3135 -10.3652 -45.9703
LeftArm  -12.652 19.1858 -32.2507
LeftForeArm  42.1794 -30.0931 -4.24586
LeftHand  -0.244104 0.0205437 5.32207
RightShoulder  3.51162 6.23853 30.0795
RightArm  -10.772 -20.3163 34.5339
RightForeArm  -3.19468 36.4885 8.48871
RightHand  -2.09457 5.10928 -23.1451
LeftUpLeg  -14.5073 -7.37052 10.6633
LeftLeg  16.2534 -4.55209 -0.817822
LeftFoot  -3.90653 0.878644 -13.1659
LeftToes  -5.82109e-011 -4.83791e-012 -1.00937e-011
289
root  65.3849 38.3593 -1.71919 -1.47072 -1.37488 3.74869
RightUpLeg  -6.55458 27.7342 -16.4782
RightLeg  25.0894 7.76694 3.74124
RightFoot  -19.8063 0.193352 4.49062
RightToes  -4.65663e-010 0 -3.6325e-017
Spine  11.6124 -2.15445 0.184144
Spine1  8.3709 -3.50055 4.35426
HEad  26.0458 17.3268 -1.78509
LeftShoulder1  7.42299 -10.5029 -46.2082
LeftArm  -10.5677 18.0034 -33.208
LeftForeArm  40.3408 -26.1345 -3.48452
LeftHand  -0.244104 0.0205437 5.32207
RightShoulder  3.56806 6.33149 30.3154
RightArm  -13.6787 -18.8208 34.6219
RightForeArm  -4.09376 33.9386 7.80344
RightHand  -2.05603 5.04292 -22.8758
LeftUpLeg  -15.3124 -2.72583 7.77299
LeftLeg  19.5616 -3.56297 -1.12775
LeftFoot  -4.13664 0.790452 -12.0987
LeftToes  -5.82109e-011 -4.83791e-012 -1.00937e-011
290
root  66.8368 38.5185 -1.62101 -0.890367 -6.87967 4.94681
RightUpLeg  -9.24693 23.743 -20.341
RightLeg  24.5544 4.43721 1.99069
RightFoot  -16.1436 0.150488 6.07146
RightToes  -4.65663e-010 0 -3.6325e-017
Spine  11.7185 -1.46097 -1.67122
Spine1  8.01072 -2.85064 3.97195
HEad  25.8542 19.1259 -2.68098
LeftShoulder1  7.57881 -10.8355 -46.0837
LeftArm  -8.71527 17.7735 -33.4509
LeftForeArm  40.0104 -24.8382 -3.23662
LeftHand  -0.244104 0.0205437 5.32207
RightShoulder  3.7228 6.64114 30.74
RightArm  -16.01 -17.7256 35.3284
RightForeArm  -4.45288 31.3511 7.12359
RightHand  -2.13813 5.38524 -23.027
LeftUpLeg  -15.3677 4.8198 4.44629
LeftLeg  20.5053 -4.91446 -1.67297
LeftFoot  -4.92705 0.591696 -10.0194
LeftToes  -5.82109e-011 -4.83791e-012 -1.00937e-011
291
root  68.2477 38.8093 -1.47015 -0.581135 -13.5042 5.71695
RightUpLeg  -12.2622 17.0486 -21.7591
RightLeg  25.1475 -0.599427 -0.536254
RightFoot  -11.8956 -0.0508103 5.38227
RightToes  -4.65663e-010 0 -3.6325e-017
Spine  11.5761 -0.645461 -1.26626
Spine1  7.78952 -1.34938 1.71166
HEad  26.1045 20.9068 -3.07288
LeftShoulder1  7.7101 -11.1531 -45.8614
LeftArm  -7.45227 18.1798 -32.9346
LeftForeArm  40.6336 -25.5009 -3.3443
LeftHand  -0.244104 0.0205437 5.32207
RightShoulder  3.87836 6.95832 31.1207
RightArm  -16.6612 -17.3755 36.571
RightForeArm  -5.51134 29.3988 6.68085
RightHand  -2.29137 5.85809 -23.6272
LeftUpLeg  -14.0846 10.9786 1.89659
LeftLeg  18.8769 -3.9008 -1.51515
LeftFoot  -5.14248 0.48469 -8.38464
LeftToes  -5.82109e-011 -4.83791e-012 -1.00937e-011
292
root  69.5807 39.1307 -1.28597 -0.734411 -20.0577 5.96185
RightUpLeg  -14.4329 9.63551 -20.4557
RightLeg  26.901 -4.08378 -2.47052
RightFoot  -9.52557 -0.133612 4.17587
RightToes  -4.65663e-010 0 -3.6325e-017
Spine  11.8797 0.0424586 0.373182
Spine1  7.32708 0.241261 -0.982709
HEad  26.5415 22.8389 -3.47078
LeftShoulder1  7.69956 -11.1858 -45.6916
LeftArm  -7.32935 18.8036 -32.1118
LeftForeArm  41.3946 -26.9643 -3.61262
LeftHand  -0.244104 0.0205437 5.32207
RightShoulder  3.92568 7.0374 31.2927
RightArm  -14.5742 -17.4903 37.7561
RightForeArm  -6.81626 28.2683 6.46955
RightHand  -2.31493 5.93598 -23.7009
LeftUpLeg  -12.0934 11.7591 0.740923
LeftLeg  16.3171 2.27719 -0.853267
LeftFoot  -4.63569 0.430232 -6.87699
LeftToes  -5.82109e-011 -4.83791e-012 -1.00937e-011
